<svg xmlns="http://www.w3.org/2000/svg" xmlns:xlink="http://www.w3.org/1999/xlink" width="905" height="905" version="1.1" viewBox="0 0 905 905"><title>Artboard</title><desc>Created with Sketch.</desc><g id="Artboard" fill="none" fill-rule="evenodd" stroke="none" stroke-width="1"><path id="C" fill="#FFF" d="M348.6,622.516304 C251.37931,622.516304 186.310345,546.921196 186.310345,453 C186.310345,364.423913 244.489655,283.483696 347.068966,283.483696 C425.917241,283.483696 473.37931,330.826087 484.862069,393.440217 L614.234483,393.440217 C599.689655,270.502717 502.468966,172 345.537931,172 C162.57931,172 60,306.391304 60,453 C60,602.663043 167.937931,734 347.068966,734 C497.110345,734 594.331034,641.605978 615,528.595109 L483.331034,528.595109 C468.02069,581.282609 420.558621,622.516304 348.6,622.516304 Z"/><polygon id="Path-3" fill="#FFF" points="654 222.107 733.623 188 846 455.197 732.489 719 654.55 685.542 752.548 454.497"/></g></svg>